<svg aria-hidden="true" style="position: absolute; width: 0; height: 0; overflow: hidden;" version="1.1" xmlns="http://www.w3.org/2000/svg" xmlns:xlink="http://www.w3.org/1999/xlink">
 <defs>
    <symbol id="icon-like-off" viewBox="0 0 38 32">
      <path stroke-linejoin="round" stroke-linecap="round" stroke-width="2.909" d="M32.839 4.355a8.672 8.672 0 0 0-6.13-2.54 8.664 8.664 0 0 0-6.13 2.54l-1.67 1.67-1.67-1.67a8.669 8.669 0 0 0-12.26 12.26l13.93 13.93 13.93-13.93a8.672 8.672 0 0 0 2.54-6.13 8.664 8.664 0 0 0-2.54-6.13z"/>
    </symbol>
    <symbol id="icon-like-on" viewBox="0 0 35 32">
      <path stroke-linejoin="round" stroke-linecap="round" stroke-width="1.454" d="M31.384 4.355a8.672 8.672 0 0 0-6.13-2.54 8.664 8.664 0 0 0-6.13 2.54l-1.67 1.67-1.67-1.67a8.669 8.669 0 0 0-12.26 12.26l13.93 13.93 13.93-13.93a8.672 8.672 0 0 0 2.54-6.13 8.664 8.664 0 0 0-2.54-6.13z"/>
    </symbol>
      <symbol id="icon-login" viewBox="0 0 32 32">
      <path stroke-linejoin="round" stroke-linecap="round" stroke-width="3.2" d="M20 4h1.6c2.24 0 3.36 0 4.216.436a3.996 3.996 0 0 1 1.748 1.748C28 7.04 28 8.16 28 10.4v11.2c0 2.24 0 3.36-.436 4.216a4.001 4.001 0 0 1-1.748 1.748C24.96 28 23.84 28 21.6 28H20M13.333 9.333 20 16m0 0-6.667 6.667M20 16H4"/>
    </symbol>
    <symbol id="icon-cross" viewBox="0 0 32 32">
      <path d="M31.708 25.708 22 16l9.708-9.708a1 1 0 0 0 0-1.414L27.122.292a1 1 0 0 0-1.414-.001L16 9.999 6.292.291a.998.998 0 0 0-1.414.001L.292 4.878a1 1 0 0 0 0 1.414L10 16 .292 25.708a.999.999 0 0 0 0 1.414l4.586 4.586a1 1 0 0 0 1.414 0L16 22l9.708 9.708a1 1 0 0 0 1.414 0l4.586-4.586a.999.999 0 0 0 0-1.414z"/>
    </symbol>
  </defs>
</svg>
