<svg aria-hidden="true" style="position: absolute; width: 0; height: 0; overflow: hidden;" version="1.1" xmlns="http://www.w3.org/2000/svg" xmlns:xlink="http://www.w3.org/1999/xlink">
 <defs>
    <symbol id="icon-like-off" viewBox="0 0 38 32">
      <path stroke-linejoin="round" stroke-linecap="round" stroke-width="2.909" d="M32.839 4.355a8.672 8.672 0 0 0-6.13-2.54 8.664 8.664 0 0 0-6.13 2.54l-1.67 1.67-1.67-1.67a8.669 8.669 0 0 0-12.26 12.26l13.93 13.93 13.93-13.93a8.672 8.672 0 0 0 2.54-6.13 8.664 8.664 0 0 0-2.54-6.13z"/>
    </symbol>
    <symbol id="icon-like-on" viewBox="0 0 35 32">
      <path stroke-linejoin="round" stroke-linecap="round" stroke-width="1.454" d="M31.384 4.355a8.672 8.672 0 0 0-6.13-2.54 8.664 8.664 0 0 0-6.13 2.54l-1.67 1.67-1.67-1.67a8.669 8.669 0 0 0-12.26 12.26l13.93 13.93 13.93-13.93a8.672 8.672 0 0 0 2.54-6.13 8.664 8.664 0 0 0-2.54-6.13z"/>
    </symbol>
  </defs>
</svg>
